<mxfile host="app.diagrams.net" modified="2024-07-05T17:18:35.277Z" agent="Mozilla/5.0 (Macintosh; Intel Mac OS X 10_15_7) AppleWebKit/537.36 (KHTML, like Gecko) Chrome/126.0.0.0 Safari/537.36" etag="lI3Yp130xZqVrsS4HOjC" version="24.6.3" type="github">
  <diagram name="Page-1" id="c7558073-3199-34d8-9f00-42111426c3f3">
    <mxGraphModel dx="1466" dy="519" grid="0" gridSize="10" guides="1" tooltips="1" connect="1" arrows="1" fold="1" page="1" pageScale="1" pageWidth="826" pageHeight="1169" background="none" math="0" shadow="0">
      <root>
        <mxCell id="0" />
        <mxCell id="1" parent="0" />
        <mxCell id="iVMVPq-4qKG2BlD65Rqs-185" value="" style="group" vertex="1" connectable="0" parent="1">
          <mxGeometry x="40" y="170" width="1612.01" height="999" as="geometry" />
        </mxCell>
        <mxCell id="iVMVPq-4qKG2BlD65Rqs-163" value="" style="rounded=0;whiteSpace=wrap;html=1;strokeColor=none;fillColor=none;" vertex="1" parent="iVMVPq-4qKG2BlD65Rqs-185">
          <mxGeometry x="1253" y="620" width="240" height="240" as="geometry" />
        </mxCell>
        <mxCell id="iVMVPq-4qKG2BlD65Rqs-145" style="edgeStyle=elbowEdgeStyle;elbow=horizontal;strokeColor=#990000;strokeWidth=2;entryX=0;entryY=0.5;entryDx=0;entryDy=0;" edge="1" parent="iVMVPq-4qKG2BlD65Rqs-185" source="iVMVPq-4qKG2BlD65Rqs-98" target="iVMVPq-4qKG2BlD65Rqs-141">
          <mxGeometry relative="1" as="geometry" />
        </mxCell>
        <mxCell id="iVMVPq-4qKG2BlD65Rqs-98" value="&lt;p style=&quot;margin: 0px; margin-top: 4px; text-align: center; text-decoration: underline;&quot;&gt;&lt;span style=&quot;background-color: initial;&quot;&gt;1.&lt;/span&gt;&lt;span style=&quot;text-wrap: wrap; background-color: initial;&quot;&gt;1-Ingestao_Classificacao_Materiais_SAP&lt;/span&gt;&lt;strong&gt;&lt;br&gt;&lt;/strong&gt;&lt;/p&gt;&lt;hr&gt;&lt;p style=&quot;margin: 0px; margin-left: 8px;&quot;&gt;Ingestao dos dados de materiais do SAP&lt;/p&gt;" style="verticalAlign=middle;align=center;overflow=fill;fontSize=12;fontFamily=Helvetica;html=1;rounded=1;fontStyle=1;strokeWidth=3;fillColor=#E6FFCC" vertex="1" parent="iVMVPq-4qKG2BlD65Rqs-185">
          <mxGeometry x="3" width="250" height="60" as="geometry" />
        </mxCell>
        <mxCell id="iVMVPq-4qKG2BlD65Rqs-143" style="edgeStyle=elbowEdgeStyle;elbow=horizontal;strokeColor=#990000;strokeWidth=2;entryX=0;entryY=0.5;entryDx=0;entryDy=0;" edge="1" parent="iVMVPq-4qKG2BlD65Rqs-185" source="iVMVPq-4qKG2BlD65Rqs-99" target="iVMVPq-4qKG2BlD65Rqs-141">
          <mxGeometry relative="1" as="geometry">
            <mxPoint x="493" y="140" as="targetPoint" />
          </mxGeometry>
        </mxCell>
        <mxCell id="iVMVPq-4qKG2BlD65Rqs-99" value="&lt;p style=&quot;margin: 0px; margin-top: 4px; text-align: center; text-decoration: underline;&quot;&gt;&lt;span style=&quot;text-wrap: wrap; background-color: initial;&quot;&gt;1.1-Ingestao_Classificacao_Materiais_SAP&lt;/span&gt;&lt;strong&gt;&lt;br&gt;&lt;/strong&gt;&lt;/p&gt;&lt;hr&gt;&lt;p style=&quot;margin: 0px; margin-left: 8px;&quot;&gt;Pivot dos dados de caracteristicas&lt;/p&gt;" style="verticalAlign=middle;align=center;overflow=fill;fontSize=12;fontFamily=Helvetica;html=1;rounded=1;fontStyle=1;strokeWidth=3;fillColor=#E6FFCC" vertex="1" parent="iVMVPq-4qKG2BlD65Rqs-185">
          <mxGeometry y="90" width="253" height="60" as="geometry" />
        </mxCell>
        <mxCell id="iVMVPq-4qKG2BlD65Rqs-100" value="&lt;p style=&quot;margin: 0px; margin-top: 4px; text-align: center; text-decoration: underline;&quot;&gt;&lt;span style=&quot;text-wrap: wrap; background-color: initial;&quot;&gt;1.1-Ingestao_MongoDB_Gaia&lt;/span&gt;&lt;strong&gt;&lt;br&gt;&lt;/strong&gt;&lt;/p&gt;&lt;hr&gt;&lt;p style=&quot;margin: 0px; margin-left: 8px;&quot;&gt;IngestÃ£o dos atributos de produtos&amp;nbsp;&lt;/p&gt;&lt;p style=&quot;margin: 0px; margin-left: 8px;&quot;&gt;a partir do Gaia&lt;/p&gt;" style="verticalAlign=middle;align=center;overflow=fill;fontSize=12;fontFamily=Helvetica;html=1;rounded=1;fontStyle=1;strokeWidth=3;fillColor=#E6FFCC" vertex="1" parent="iVMVPq-4qKG2BlD65Rqs-185">
          <mxGeometry y="179" width="253" height="62" as="geometry" />
        </mxCell>
        <mxCell id="iVMVPq-4qKG2BlD65Rqs-114" style="edgeStyle=elbowEdgeStyle;elbow=horizontal;strokeColor=#990000;strokeWidth=2;entryX=0;entryY=0.5;entryDx=0;entryDy=0;" edge="1" parent="iVMVPq-4qKG2BlD65Rqs-185" target="iVMVPq-4qKG2BlD65Rqs-125">
          <mxGeometry relative="1" as="geometry">
            <mxPoint x="123" y="240" as="sourcePoint" />
            <mxPoint x="163" y="420" as="targetPoint" />
            <Array as="points">
              <mxPoint x="123" y="260" />
            </Array>
          </mxGeometry>
        </mxCell>
        <mxCell id="iVMVPq-4qKG2BlD65Rqs-126" value="" style="group" vertex="1" connectable="0" parent="iVMVPq-4qKG2BlD65Rqs-185">
          <mxGeometry x="154" y="270" width="232" height="410" as="geometry" />
        </mxCell>
        <mxCell id="iVMVPq-4qKG2BlD65Rqs-125" value="" style="rounded=1;whiteSpace=wrap;html=1;gradientColor=none;fillColor=none;strokeColor=none;" vertex="1" parent="iVMVPq-4qKG2BlD65Rqs-126">
          <mxGeometry width="230" height="410" as="geometry" />
        </mxCell>
        <mxCell id="iVMVPq-4qKG2BlD65Rqs-116" value="" style="group" vertex="1" connectable="0" parent="iVMVPq-4qKG2BlD65Rqs-126">
          <mxGeometry x="12" y="20" width="220" height="390" as="geometry" />
        </mxCell>
        <mxCell id="iVMVPq-4qKG2BlD65Rqs-112" value="&lt;p style=&quot;margin: 4px 0px 0px;&quot;&gt;&lt;span style=&quot;background-color: initial; text-wrap: wrap;&quot;&gt;&lt;u&gt;2.5-Ingestao_Produtos Gaia&lt;/u&gt;&lt;/span&gt;&lt;span style=&quot;background-color: initial;&quot;&gt;&lt;u style=&quot;&quot;&gt;&lt;font face=&quot;monospace&quot; color=&quot;rgba(0, 0, 0, 0)&quot;&gt;&lt;span style=&quot;font-size: 0px; font-weight: 400;&quot;&gt;3CmxGraphModel%3E%3Croot%3E%3CmxCell%20id%3D%220%22%2F%3E%3CmxCell%20id%3D%221%22%20parent%3D%220%22%2F%3E%3CmxCell%20id%3D%222%22%20value%3D%22%26lt%3Bp%20style%3D%26quot%3Bmargin%3A%200px%3B%20margin-top%3A%204px%3B%20text-align%3A%20center%3B%20text-decoration%3A%20underline%3B%26quot%3B%26gt%3B%26lt%3Bspan%20style%3D%26quot%3Btext-wrap%3A%20wrap%3B%20background-color%3A%20initial%3B%26quot%3B%26gt%3B1.1-Ingestao_Classificacao_Materiais_SAP%26lt%3B%2Fspan%26gt%3B%26lt%3Bstrong%26gt%3B%26lt%3Bbr%26gt%3B%26lt%3B%2Fstrong%26gt%3B%26lt%3B%2Fp%26gt%3B%26lt%3Bhr%26gt%3B%26lt%3Bp%20style%3D%26quot%3Bmargin%3A%200px%3B%20margin-left%3A%208px%3B%26quot%3B%26gt%3BPivot%20dos%20dados%20de%20caracteristicas%26lt%3B%2Fp%26gt%3B%22%20style%3D%22verticalAlign%3Dmiddle%3Balign%3Dcenter%3Boverflow%3Dfill%3BfontSize%3D12%3BfontFamily%3DHelvetica%3Bhtml%3D1%3Brounded%3D1%3BfontStyle%3D1%3BstrokeWidth%3D3%3BfillColor%3D%23E6FFCC%22%20vertex%3D%221%22%20parent%3D%221%22%3E%3CmxGeometry%20x%3D%2227%22%20y%3D%22150%22%20width%3D%22253%22%20height%3D%2260%22%20as%3D%22geometry%22%2F%3E%3C%2FmxCell%3E%3C%2Froot%3E%3C%2FmxGraphModel%3E&lt;/span&gt;&lt;/font&gt;&lt;/u&gt;&lt;/span&gt;&lt;strong style=&quot;text-decoration-line: underline;&quot;&gt;&lt;br&gt;&lt;/strong&gt;&lt;/p&gt;&lt;hr&gt;&lt;p style=&quot;margin: 0px; margin-left: 8px;&quot;&gt;Pipeline dos Atributos&lt;/p&gt;" style="verticalAlign=middle;align=center;overflow=fill;fontSize=12;fontFamily=Helvetica;html=1;rounded=1;fontStyle=1;strokeWidth=3;fillColor=#E6FFCC" vertex="1" parent="iVMVPq-4qKG2BlD65Rqs-116">
          <mxGeometry width="206" height="60" as="geometry" />
        </mxCell>
        <mxCell id="iVMVPq-4qKG2BlD65Rqs-113" value="" style="group" vertex="1" connectable="0" parent="iVMVPq-4qKG2BlD65Rqs-116">
          <mxGeometry y="80" width="206" height="300" as="geometry" />
        </mxCell>
        <mxCell id="iVMVPq-4qKG2BlD65Rqs-101" value="&lt;p style=&quot;margin: 4px 0px 0px; text-align: center;&quot;&gt;&lt;span style=&quot;background-color: initial; text-wrap: wrap;&quot;&gt;&lt;u&gt;2.1-Ingestao_Hierarquia&lt;/u&gt;&lt;/span&gt;&lt;span style=&quot;text-decoration-line: underline; color: rgba(0, 0, 0, 0); font-family: monospace; font-size: 0px; font-weight: 400; text-align: start; background-color: initial;&quot;&gt;3CmxGraphModel%3E%3Croot%3E%3CmxCell%20id%3D%220%22%2F%3E%3CmxCell%20id%3D%221%22%20parent%3D%220%22%2F%3E%3CmxCell%20id%3D%222%22%20value%3D%22%26lt%3Bp%20style%3D%26quot%3Bmargin%3A%200px%3B%20margin-top%3A%204px%3B%20text-align%3A%20center%3B%20text-decoration%3A%20underline%3B%26quot%3B%26gt%3B%26lt%3Bspan%20style%3D%26quot%3Btext-wrap%3A%20wrap%3B%20background-color%3A%20initial%3B%26quot%3B%26gt%3B1.1-Ingestao_Classificacao_Materiais_SAP%26lt%3B%2Fspan%26gt%3B%26lt%3Bstrong%26gt%3B%26lt%3Bbr%26gt%3B%26lt%3B%2Fstrong%26gt%3B%26lt%3B%2Fp%26gt%3B%26lt%3Bhr%26gt%3B%26lt%3Bp%20style%3D%26quot%3Bmargin%3A%200px%3B%20margin-left%3A%208px%3B%26quot%3B%26gt%3BPivot%20dos%20dados%20de%20caracteristicas%26lt%3B%2Fp%26gt%3B%22%20style%3D%22verticalAlign%3Dmiddle%3Balign%3Dcenter%3Boverflow%3Dfill%3BfontSize%3D12%3BfontFamily%3DHelvetica%3Bhtml%3D1%3Brounded%3D1%3BfontStyle%3D1%3BstrokeWidth%3D3%3BfillColor%3D%23E6FFCC%22%20vertex%3D%221%22%20parent%3D%221%22%3E%3CmxGeometry%20x%3D%2227%22%20y%3D%22150%22%20width%3D%22253%22%20height%3D%2260%22%20as%3D%22geometry%22%2F%3E%3C%2FmxCell%3E%3C%2Froot%3E%3C%2FmxGraphModel%3E&lt;/span&gt;&lt;strong style=&quot;text-decoration-line: underline;&quot;&gt;&lt;br&gt;&lt;/strong&gt;&lt;/p&gt;&lt;hr&gt;&lt;p style=&quot;margin: 0px; margin-left: 8px;&quot;&gt;Dados de hieraraquia SAP e Gaia&lt;/p&gt;" style="verticalAlign=middle;align=center;overflow=fill;fontSize=12;fontFamily=Helvetica;html=1;rounded=1;fontStyle=1;strokeWidth=3;fillColor=#E6FFCC" vertex="1" parent="iVMVPq-4qKG2BlD65Rqs-113">
          <mxGeometry y="240" width="206" height="60" as="geometry" />
        </mxCell>
        <mxCell id="iVMVPq-4qKG2BlD65Rqs-105" value="&lt;p style=&quot;margin: 4px 0px 0px; text-align: center;&quot;&gt;&lt;span style=&quot;background-color: initial; text-wrap: wrap;&quot;&gt;&lt;u&gt;2&lt;/u&gt;&lt;/span&gt;&lt;span style=&quot;text-align: start; background-color: initial;&quot;&gt;&lt;span style=&quot;text-wrap: wrap;&quot;&gt;&lt;u&gt;.2-Atributo_Area_Responsavel&lt;/u&gt;&lt;/span&gt;&lt;font face=&quot;monospace&quot; color=&quot;rgba(0, 0, 0, 0)&quot;&gt;&lt;span style=&quot;font-size: 0px; font-weight: 400;&quot;&gt;&lt;u&gt;3CmxGraphModel%3E%3Croot%3E%3CmxCell%20id%3D%220%22%2F%3E%3CmxCell%20id%3D%221%22%20parent%3D%220%22%2F%3E%3CmxCell%20id%3D%222%22%20value%3D%22%26lt%3Bp%20style%3D%26quot%3Bmargin%3A%200px%3B%20margin-top%3A%204px%3B%20text-align%3A%20center%3B%20text-decoration%3A%20underline%3B%26quot%3B%26gt%3B%26lt%3Bspan%20style%3D%26quot%3Btext-wrap%3A%20wrap%3B%20background-color%3A%20initial%3B%26quot%3B%26gt%3B1.1-Ingestao_Classificacao_Materiais_SAP%26lt%3B%2Fspan%26gt%3B%26lt%3Bstrong%26gt%3B%26lt%3Bbr%26gt%3B%26lt%3B%2Fstrong%26gt%3B%26lt%3B%2Fp%26gt%3B%26lt%3Bhr%26gt%3B%26lt%3Bp%20style%3D%26quot%3Bmargin%3A%200px%3B%20margin-left%3A%208px%3B%26quot%3B%26gt%3BPivot%20dos%20dados%20de%20caracteristicas%26lt%3B%2Fp%26gt%3B%22%20style%3D%22verticalAlign%3Dmiddle%3Balign%3Dcenter%3Boverflow%3Dfill%3BfontSize%3D12%3BfontFamily%3DHelvetica%3Bhtml%3D1%3Brounded%3D1%3BfontStyle%3D1%3BstrokeWidth%3D3%3BfillColor%3D%23E6FFCC%22%20vertex%3D%221%22%20parent%3D%221%22%3E%3CmxGeometry%20x%3D%2227%22%20y%3D%22150%22%20width%3D%22253%22%20height%3D%2260%22%20as%3D%22geometry%22%2F%3E%3C%2FmxCell%3E%3C%2Froot%3E%3C%2FmxGraphModel%3E&lt;/u&gt;&lt;/span&gt;&lt;/font&gt;&lt;/span&gt;&lt;strong style=&quot;text-decoration-line: underline;&quot;&gt;&lt;br&gt;&lt;/strong&gt;&lt;/p&gt;&lt;hr&gt;&lt;p style=&quot;margin: 0px; margin-left: 8px;&quot;&gt;Dados Area ResponsÃ¡vel&lt;/p&gt;" style="verticalAlign=middle;align=center;overflow=fill;fontSize=12;fontFamily=Helvetica;html=1;rounded=1;fontStyle=1;strokeWidth=3;fillColor=#E6FFCC" vertex="1" parent="iVMVPq-4qKG2BlD65Rqs-113">
          <mxGeometry y="160" width="206" height="60" as="geometry" />
        </mxCell>
        <mxCell id="iVMVPq-4qKG2BlD65Rqs-108" value="&lt;p style=&quot;margin: 4px 0px 0px;&quot;&gt;&lt;span style=&quot;background-color: initial; text-wrap: wrap;&quot;&gt;&lt;u&gt;2&lt;/u&gt;&lt;/span&gt;&lt;span style=&quot;background-color: initial;&quot;&gt;&lt;u style=&quot;&quot;&gt;&lt;span style=&quot;text-wrap: wrap;&quot;&gt;.3-Ingestao_Gaia_Assets&lt;/span&gt;&lt;font face=&quot;monospace&quot; color=&quot;rgba(0, 0, 0, 0)&quot;&gt;&lt;span style=&quot;font-size: 0px; font-weight: 400;&quot;&gt;3CmxGraphModel%3E%3Croot%3E%3CmxCell%20id%3D%220%22%2F%3E%3CmxCell%20id%3D%221%22%20parent%3D%220%22%2F%3E%3CmxCell%20id%3D%222%22%20value%3D%22%26lt%3Bp%20style%3D%26quot%3Bmargin%3A%200px%3B%20margin-top%3A%204px%3B%20text-align%3A%20center%3B%20text-decoration%3A%20underline%3B%26quot%3B%26gt%3B%26lt%3Bspan%20style%3D%26quot%3Btext-wrap%3A%20wrap%3B%20background-color%3A%20initial%3B%26quot%3B%26gt%3B1.1-Ingestao_Classificacao_Materiais_SAP%26lt%3B%2Fspan%26gt%3B%26lt%3Bstrong%26gt%3B%26lt%3Bbr%26gt%3B%26lt%3B%2Fstrong%26gt%3B%26lt%3B%2Fp%26gt%3B%26lt%3Bhr%26gt%3B%26lt%3Bp%20style%3D%26quot%3Bmargin%3A%200px%3B%20margin-left%3A%208px%3B%26quot%3B%26gt%3BPivot%20dos%20dados%20de%20caracteristicas%26lt%3B%2Fp%26gt%3B%22%20style%3D%22verticalAlign%3Dmiddle%3Balign%3Dcenter%3Boverflow%3Dfill%3BfontSize%3D12%3BfontFamily%3DHelvetica%3Bhtml%3D1%3Brounded%3D1%3BfontStyle%3D1%3BstrokeWidth%3D3%3BfillColor%3D%23E6FFCC%22%20vertex%3D%221%22%20parent%3D%221%22%3E%3CmxGeometry%20x%3D%2227%22%20y%3D%22150%22%20width%3D%22253%22%20height%3D%2260%22%20as%3D%22geometry%22%2F%3E%3C%2FmxCell%3E%3C%2Froot%3E%3C%2FmxGraphModel%3E&lt;/span&gt;&lt;/font&gt;&lt;/u&gt;&lt;/span&gt;&lt;strong style=&quot;text-decoration-line: underline;&quot;&gt;&lt;br&gt;&lt;/strong&gt;&lt;/p&gt;&lt;hr&gt;&lt;p style=&quot;margin: 0px; margin-left: 8px;&quot;&gt;Assets Documentos e Imagens&lt;/p&gt;" style="verticalAlign=middle;align=center;overflow=fill;fontSize=12;fontFamily=Helvetica;html=1;rounded=1;fontStyle=1;strokeWidth=3;fillColor=#E6FFCC" vertex="1" parent="iVMVPq-4qKG2BlD65Rqs-113">
          <mxGeometry y="81" width="206" height="60" as="geometry" />
        </mxCell>
        <mxCell id="iVMVPq-4qKG2BlD65Rqs-110" value="&lt;p style=&quot;margin: 4px 0px 0px;&quot;&gt;&lt;span style=&quot;background-color: initial;&quot;&gt;&lt;u style=&quot;&quot;&gt;&lt;span style=&quot;text-wrap: wrap;&quot;&gt;2.4-Gaia_References&lt;/span&gt;&lt;font face=&quot;monospace&quot; color=&quot;rgba(0, 0, 0, 0)&quot;&gt;&lt;span style=&quot;font-size: 0px; font-weight: 400;&quot;&gt;3CmxGraphModel%3E%3Croot%3E%3CmxCell%20id%3D%220%22%2F%3E%3CmxCell%20id%3D%221%22%20parent%3D%220%22%2F%3E%3CmxCell%20id%3D%222%22%20value%3D%22%26lt%3Bp%20style%3D%26quot%3Bmargin%3A%200px%3B%20margin-top%3A%204px%3B%20text-align%3A%20center%3B%20text-decoration%3A%20underline%3B%26quot%3B%26gt%3B%26lt%3Bspan%20style%3D%26quot%3Btext-wrap%3A%20wrap%3B%20background-color%3A%20initial%3B%26quot%3B%26gt%3B1.1-Ingestao_Classificacao_Materiais_SAP%26lt%3B%2Fspan%26gt%3B%26lt%3Bstrong%26gt%3B%26lt%3Bbr%26gt%3B%26lt%3B%2Fstrong%26gt%3B%26lt%3B%2Fp%26gt%3B%26lt%3Bhr%26gt%3B%26lt%3Bp%20style%3D%26quot%3Bmargin%3A%200px%3B%20margin-left%3A%208px%3B%26quot%3B%26gt%3BPivot%20dos%20dados%20de%20caracteristicas%26lt%3B%2Fp%26gt%3B%22%20style%3D%22verticalAlign%3Dmiddle%3Balign%3Dcenter%3Boverflow%3Dfill%3BfontSize%3D12%3BfontFamily%3DHelvetica%3Bhtml%3D1%3Brounded%3D1%3BfontStyle%3D1%3BstrokeWidth%3D3%3BfillColor%3D%23E6FFCC%22%20vertex%3D%221%22%20parent%3D%221%22%3E%3CmxGeometry%20x%3D%2227%22%20y%3D%22150%22%20width%3D%22253%22%20height%3D%2260%22%20as%3D%22geometry%22%2F%3E%3C%2FmxCell%3E%3C%2Froot%3E%3C%2FmxGraphModel%3E&lt;/span&gt;&lt;/font&gt;&lt;/u&gt;&lt;/span&gt;&lt;strong style=&quot;text-decoration-line: underline;&quot;&gt;&lt;br&gt;&lt;/strong&gt;&lt;/p&gt;&lt;hr&gt;&lt;p style=&quot;margin: 0px; margin-left: 8px;&quot;&gt;Dados de intens relacionados&amp;nbsp;&lt;/p&gt;&lt;p style=&quot;margin: 0px; margin-left: 8px;&quot;&gt;e instalacao&lt;/p&gt;" style="verticalAlign=middle;align=center;overflow=fill;fontSize=12;fontFamily=Helvetica;html=1;rounded=1;fontStyle=1;strokeWidth=3;fillColor=#E6FFCC" vertex="1" parent="iVMVPq-4qKG2BlD65Rqs-113">
          <mxGeometry width="206" height="60" as="geometry" />
        </mxCell>
        <mxCell id="iVMVPq-4qKG2BlD65Rqs-131" style="edgeStyle=elbowEdgeStyle;elbow=horizontal;strokeColor=#990000;strokeWidth=2;entryX=0;entryY=0.5;entryDx=0;entryDy=0;" edge="1" parent="iVMVPq-4qKG2BlD65Rqs-185" source="iVMVPq-4qKG2BlD65Rqs-125" target="iVMVPq-4qKG2BlD65Rqs-129">
          <mxGeometry relative="1" as="geometry" />
        </mxCell>
        <mxCell id="iVMVPq-4qKG2BlD65Rqs-142" value="" style="group" vertex="1" connectable="0" parent="iVMVPq-4qKG2BlD65Rqs-185">
          <mxGeometry x="483" y="70" width="240" height="100" as="geometry" />
        </mxCell>
        <mxCell id="iVMVPq-4qKG2BlD65Rqs-141" value="" style="rounded=0;whiteSpace=wrap;html=1;fillColor=none;strokeColor=none;" vertex="1" parent="iVMVPq-4qKG2BlD65Rqs-142">
          <mxGeometry width="240" height="100" as="geometry" />
        </mxCell>
        <mxCell id="iVMVPq-4qKG2BlD65Rqs-135" value="&lt;p style=&quot;margin: 4px 0px 0px;&quot;&gt;&lt;span style=&quot;background-color: initial; text-wrap: wrap;&quot;&gt;&lt;u&gt;4.2-Ingestao_Materiais&lt;/u&gt;&lt;/span&gt;&lt;span style=&quot;background-color: initial;&quot;&gt;&lt;u style=&quot;&quot;&gt;&lt;font face=&quot;monospace&quot; color=&quot;rgba(0, 0, 0, 0)&quot;&gt;&lt;span style=&quot;font-size: 0px; font-weight: 400;&quot;&gt;3CmxGraphModel%3E%3Croot%3E%3CmxCell%20id%3D%220%22%2F%3E%3CmxCell%20id%3D%221%22%20parent%3D%220%22%2F%3E%3CmxCell%20id%3D%222%22%20value%3D%22%26lt%3Bp%20style%3D%26quot%3Bmargin%3A%200px%3B%20margin-top%3A%204px%3B%20text-align%3A%20center%3B%20text-decoration%3A%20underline%3B%26quot%3B%26gt%3B%26lt%3Bspan%20style%3D%26quot%3Btext-wrap%3A%20wrap%3B%20background-color%3A%20initial%3B%26quot%3B%26gt%3B1.1-Ingestao_Classificacao_Materiais_SAP%26lt%3B%2Fspan%26gt%3B%26lt%3Bstrong%26gt%3B%26lt%3Bbr%26gt%3B%26lt%3B%2Fstrong%26gt%3B%26lt%3B%2Fp%26gt%3B%26lt%3Bhr%26gt%3B%26lt%3Bp%20style%3D%26quot%3Bmargin%3A%200px%3B%20margin-left%3A%208px%3B%26quot%3B%26gt%3BPivot%20dos%20dados%20de%20caracteristicas%26lt%3B%2Fp%26gt%3B%22%20style%3D%22verticalAlign%3Dmiddle%3Balign%3Dcenter%3Boverflow%3Dfill%3BfontSize%3D12%3BfontFamily%3DHelvetica%3Bhtml%3D1%3Brounded%3D1%3BfontStyle%3D1%3BstrokeWidth%3D3%3BfillColor%3D%23E6FFCC%22%20vertex%3D%221%22%20parent%3D%221%22%3E%3CmxGeometry%20x%3D%2227%22%20y%3D%22150%22%20width%3D%22253%22%20height%3D%2260%22%20as%3D%22geometry%22%2F%3E%3C%2FmxCell%3E%3C%2Froot%3E%3C%2FmxGraphModel%3E&lt;/span&gt;&lt;/font&gt;&lt;/u&gt;&lt;/span&gt;&lt;strong style=&quot;text-decoration-line: underline;&quot;&gt;&lt;br&gt;&lt;/strong&gt;&lt;/p&gt;&lt;hr&gt;&lt;p style=&quot;margin: 0px; margin-left: 8px;&quot;&gt;Ingestao Materiais&lt;/p&gt;" style="verticalAlign=middle;align=center;overflow=fill;fontSize=12;fontFamily=Helvetica;html=1;rounded=1;fontStyle=1;strokeWidth=3;fillColor=#E6FFCC" vertex="1" parent="iVMVPq-4qKG2BlD65Rqs-142">
          <mxGeometry x="17" y="20" width="206" height="60" as="geometry" />
        </mxCell>
        <mxCell id="iVMVPq-4qKG2BlD65Rqs-144" style="edgeStyle=elbowEdgeStyle;elbow=horizontal;strokeColor=#990000;strokeWidth=2;entryX=0;entryY=0.5;entryDx=0;entryDy=0;" edge="1" parent="iVMVPq-4qKG2BlD65Rqs-185" source="iVMVPq-4qKG2BlD65Rqs-125" target="iVMVPq-4qKG2BlD65Rqs-141">
          <mxGeometry relative="1" as="geometry">
            <Array as="points">
              <mxPoint x="403" y="260" />
              <mxPoint x="413" y="260" />
            </Array>
          </mxGeometry>
        </mxCell>
        <mxCell id="iVMVPq-4qKG2BlD65Rqs-151" value="" style="group" vertex="1" connectable="0" parent="iVMVPq-4qKG2BlD65Rqs-185">
          <mxGeometry x="963" y="392.58000000000004" width="240" height="240.00000000000006" as="geometry" />
        </mxCell>
        <mxCell id="iVMVPq-4qKG2BlD65Rqs-134" value="&lt;p style=&quot;margin: 4px 0px 0px;&quot;&gt;&lt;span style=&quot;background-color: initial;&quot;&gt;&lt;u style=&quot;&quot;&gt;&lt;span style=&quot;text-wrap: wrap;&quot;&gt;5.1-Ingestao_Produto_Postgree&lt;/span&gt;&lt;font face=&quot;monospace&quot; color=&quot;rgba(0, 0, 0, 0)&quot;&gt;&lt;span style=&quot;font-size: 0px; font-weight: 400;&quot;&gt;3CmxGraphModel%3E%3Croot%3E%3CmxCell%20id%3D%220%22%2F%3E%3CmxCell%20id%3D%221%22%20parent%3D%220%22%2F%3E%3CmxCell%20id%3D%222%22%20value%3D%22%26lt%3Bp%20style%3D%26quot%3Bmargin%3A%200px%3B%20margin-top%3A%204px%3B%20text-align%3A%20center%3B%20text-decoration%3A%20underline%3B%26quot%3B%26gt%3B%26lt%3Bspan%20style%3D%26quot%3Btext-wrap%3A%20wrap%3B%20background-color%3A%20initial%3B%26quot%3B%26gt%3B1.1-Ingestao_Classificacao_Materiais_SAP%26lt%3B%2Fspan%26gt%3B%26lt%3Bstrong%26gt%3B%26lt%3Bbr%26gt%3B%26lt%3B%2Fstrong%26gt%3B%26lt%3B%2Fp%26gt%3B%26lt%3Bhr%26gt%3B%26lt%3Bp%20style%3D%26quot%3Bmargin%3A%200px%3B%20margin-left%3A%208px%3B%26quot%3B%26gt%3BPivot%20dos%20dados%20de%20caracteristicas%26lt%3B%2Fp%26gt%3B%22%20style%3D%22verticalAlign%3Dmiddle%3Balign%3Dcenter%3Boverflow%3Dfill%3BfontSize%3D12%3BfontFamily%3DHelvetica%3Bhtml%3D1%3Brounded%3D1%3BfontStyle%3D1%3BstrokeWidth%3D3%3BfillColor%3D%23E6FFCC%22%20vertex%3D%221%22%20parent%3D%221%22%3E%3CmxGeometry%20x%3D%2227%22%20y%3D%22150%22%20width%3D%22253%22%20height%3D%2260%22%20as%3D%22geometry%22%2F%3E%3C%2FmxCell%3E%3C%2Froot%3E%3C%2FmxGraphModel%3E&lt;/span&gt;&lt;/font&gt;&lt;/u&gt;&lt;/span&gt;&lt;strong style=&quot;text-decoration-line: underline;&quot;&gt;&lt;br&gt;&lt;/strong&gt;&lt;/p&gt;&lt;hr&gt;&lt;p style=&quot;margin: 0px; margin-left: 8px;&quot;&gt;Ingestao dos Dados no Postgree&lt;/p&gt;" style="verticalAlign=middle;align=center;overflow=fill;fontSize=12;fontFamily=Helvetica;html=1;rounded=1;fontStyle=1;strokeWidth=3;fillColor=#E6FFCC" vertex="1" parent="iVMVPq-4qKG2BlD65Rqs-151">
          <mxGeometry x="27" y="152.57999999999998" width="206" height="60" as="geometry" />
        </mxCell>
        <mxCell id="iVMVPq-4qKG2BlD65Rqs-148" value="&lt;p style=&quot;margin: 4px 0px 0px;&quot;&gt;&lt;span style=&quot;background-color: initial;&quot;&gt;5.2-Ingestao_beneficio_link&lt;/span&gt;&lt;span style=&quot;background-color: initial;&quot;&gt;&lt;u style=&quot;&quot;&gt;&lt;font face=&quot;monospace&quot; color=&quot;rgba(0, 0, 0, 0)&quot;&gt;&lt;span style=&quot;font-size: 0px;&quot;&gt;3CmxGraphModel%3E%3Croot%3E%3CmxCell%20id%3D%220%22%2F%3E%3CmxCell%20id%3D%221%22%20parent%3D%220%22%2F%3E%3CmxCell%20id%3D%222%22%20value%3D%22%26lt%3Bp%20style%3D%26quot%3Bmargin%3A%200px%3B%20margin-top%3A%204px%3B%20text-align%3A%20center%3B%20text-decoration%3A%20underline%3B%26quot%3B%26gt%3B%26lt%3Bspan%20style%3D%26quot%3Btext-wrap%3A%20wrap%3B%20background-color%3A%20initial%3B%26quot%3B%26gt%3B1.1-Ingestao_Classificacao_Materiais_SAP%26lt%3B%2Fspan%26gt%3B%26lt%3Bstrong%26gt%3B%26lt%3Bbr%26gt%3B%26lt%3B%2Fstrong%26gt%3B%26lt%3B%2Fp%26gt%3B%26lt%3Bhr%26gt%3B%26lt%3Bp%20style%3D%26quot%3Bmargin%3A%200px%3B%20margin-left%3A%208px%3B%26quot%3B%26gt%3BPivot%20dos%20dados%20de%20caracteristicas%26lt%3B%2Fp%26gt%3B%22%20style%3D%22verticalAlign%3Dmiddle%3Balign%3Dcenter%3Boverflow%3Dfill%3BfontSize%3D12%3BfontFamily%3DHelvetica%3Bhtml%3D1%3Brounded%3D1%3BfontStyle%3D1%3BstrokeWidth%3D3%3BfillColor%3D%23E6FFCC%22%20vertex%3D%221%22%20parent%3D%221%22%3E%3CmxGeometry%20x%3D%2227%22%20y%3D%22150%22%20width%3D%22253%22%20height%3D%2260%22%20as%3D%22geometry%22%2F%3E%3C%2FmxCell%3E%3C%2Froot%3E%3C%2FmxGraphModel%3E&lt;/span&gt;&lt;/font&gt;&lt;/u&gt;&lt;/span&gt;&lt;strong style=&quot;text-decoration-line: underline;&quot;&gt;&lt;br&gt;&lt;/strong&gt;&lt;/p&gt;&lt;hr&gt;&lt;p style=&quot;margin: 0px; margin-left: 8px;&quot;&gt;Ingestao dos Dados no Postgree&lt;/p&gt;" style="verticalAlign=middle;align=center;overflow=fill;fontSize=12;fontFamily=Helvetica;html=1;rounded=1;fontStyle=1;strokeWidth=3;fillColor=#E6FFCC" vertex="1" parent="iVMVPq-4qKG2BlD65Rqs-151">
          <mxGeometry x="17" y="32.579999999999984" width="206" height="60" as="geometry" />
        </mxCell>
        <mxCell id="iVMVPq-4qKG2BlD65Rqs-150" value="" style="rounded=0;whiteSpace=wrap;html=1;strokeColor=none;fillColor=none;" vertex="1" parent="iVMVPq-4qKG2BlD65Rqs-151">
          <mxGeometry width="240" height="240" as="geometry" />
        </mxCell>
        <mxCell id="iVMVPq-4qKG2BlD65Rqs-155" style="edgeStyle=elbowEdgeStyle;elbow=horizontal;strokeColor=#990000;strokeWidth=2;entryX=0;entryY=0.5;entryDx=0;entryDy=0;" edge="1" parent="iVMVPq-4qKG2BlD65Rqs-185" source="iVMVPq-4qKG2BlD65Rqs-152" target="iVMVPq-4qKG2BlD65Rqs-150">
          <mxGeometry relative="1" as="geometry" />
        </mxCell>
        <mxCell id="iVMVPq-4qKG2BlD65Rqs-156" value="" style="group" vertex="1" connectable="0" parent="iVMVPq-4qKG2BlD65Rqs-185">
          <mxGeometry x="963" y="689.9999999999999" width="240" height="100" as="geometry" />
        </mxCell>
        <mxCell id="iVMVPq-4qKG2BlD65Rqs-157" value="" style="rounded=0;whiteSpace=wrap;html=1;fillColor=none;strokeColor=none;" vertex="1" parent="iVMVPq-4qKG2BlD65Rqs-156">
          <mxGeometry width="240" height="100" as="geometry" />
        </mxCell>
        <mxCell id="iVMVPq-4qKG2BlD65Rqs-158" value="&lt;p style=&quot;margin: 4px 0px 0px;&quot;&gt;&lt;span style=&quot;background-color: initial; text-wrap: wrap;&quot;&gt;&lt;u&gt;0.1-ValidacaoURLInstitucional&lt;/u&gt;&lt;/span&gt;&lt;span style=&quot;background-color: initial;&quot;&gt;&lt;u style=&quot;&quot;&gt;&lt;font face=&quot;monospace&quot; color=&quot;rgba(0, 0, 0, 0)&quot;&gt;&lt;span style=&quot;font-size: 0px; font-weight: 400;&quot;&gt;3CmxGraphModel%3E%3Croot%3E%3CmxCell%20id%3D%220%22%2F%3E%3CmxCell%20id%3D%221%22%20parent%3D%220%22%2F%3E%3CmxCell%20id%3D%222%22%20value%3D%22%26lt%3Bp%20style%3D%26quot%3Bmargin%3A%200px%3B%20margin-top%3A%204px%3B%20text-align%3A%20center%3B%20text-decoration%3A%20underline%3B%26quot%3B%26gt%3B%26lt%3Bspan%20style%3D%26quot%3Btext-wrap%3A%20wrap%3B%20background-color%3A%20initial%3B%26quot%3B%26gt%3B1.1-Ingestao_Classificacao_Materiais_SAP%26lt%3B%2Fspan%26gt%3B%26lt%3Bstrong%26gt%3B%26lt%3Bbr%26gt%3B%26lt%3B%2Fstrong%26gt%3B%26lt%3B%2Fp%26gt%3B%26lt%3Bhr%26gt%3B%26lt%3Bp%20style%3D%26quot%3Bmargin%3A%200px%3B%20margin-left%3A%208px%3B%26quot%3B%26gt%3BPivot%20dos%20dados%20de%20caracteristicas%26lt%3B%2Fp%26gt%3B%22%20style%3D%22verticalAlign%3Dmiddle%3Balign%3Dcenter%3Boverflow%3Dfill%3BfontSize%3D12%3BfontFamily%3DHelvetica%3Bhtml%3D1%3Brounded%3D1%3BfontStyle%3D1%3BstrokeWidth%3D3%3BfillColor%3D%23E6FFCC%22%20vertex%3D%221%22%20parent%3D%221%22%3E%3CmxGeometry%20x%3D%2227%22%20y%3D%22150%22%20width%3D%22253%22%20height%3D%2260%22%20as%3D%22geometry%22%2F%3E%3C%2FmxCell%3E%3C%2Froot%3E%3C%2FmxGraphModel%3E&lt;/span&gt;&lt;/font&gt;&lt;/u&gt;&lt;/span&gt;&lt;strong style=&quot;text-decoration-line: underline;&quot;&gt;&lt;br&gt;&lt;/strong&gt;&lt;/p&gt;&lt;hr&gt;&lt;p style=&quot;margin: 0px; margin-left: 8px;&quot;&gt;Valida se todas URLs funcionam&lt;/p&gt;" style="verticalAlign=middle;align=center;overflow=fill;fontSize=12;fontFamily=Helvetica;html=1;rounded=1;fontStyle=1;strokeWidth=3;fillColor=#E6FFCC" vertex="1" parent="iVMVPq-4qKG2BlD65Rqs-156">
          <mxGeometry x="17" y="20" width="206" height="60" as="geometry" />
        </mxCell>
        <mxCell id="iVMVPq-4qKG2BlD65Rqs-172" style="edgeStyle=orthogonalEdgeStyle;rounded=0;orthogonalLoop=1;jettySize=auto;html=1;exitX=1;exitY=0.5;exitDx=0;exitDy=0;entryX=0;entryY=0.5;entryDx=0;entryDy=0;jettySize=auto;strokeColor=#990000;strokeWidth=2;" edge="1" parent="iVMVPq-4qKG2BlD65Rqs-185" source="iVMVPq-4qKG2BlD65Rqs-157" target="iVMVPq-4qKG2BlD65Rqs-163">
          <mxGeometry relative="1" as="geometry" />
        </mxCell>
        <mxCell id="iVMVPq-4qKG2BlD65Rqs-146" value="" style="group" vertex="1" connectable="0" parent="iVMVPq-4qKG2BlD65Rqs-185">
          <mxGeometry x="423" y="390" width="245.16000000000003" height="245.16000000000003" as="geometry" />
        </mxCell>
        <mxCell id="iVMVPq-4qKG2BlD65Rqs-129" value="" style="whiteSpace=wrap;html=1;aspect=fixed;fillColor=none;strokeColor=none;" vertex="1" parent="iVMVPq-4qKG2BlD65Rqs-146">
          <mxGeometry width="245.16" height="245.16" as="geometry" />
        </mxCell>
        <mxCell id="iVMVPq-4qKG2BlD65Rqs-118" value="&lt;p style=&quot;margin: 4px 0px 0px;&quot;&gt;&lt;span style=&quot;background-color: initial;&quot;&gt;&lt;u style=&quot;&quot;&gt;&lt;span style=&quot;text-wrap: wrap;&quot;&gt;0.6-ValidaHierarquia&lt;/span&gt;&lt;font face=&quot;monospace&quot; color=&quot;rgba(0, 0, 0, 0)&quot;&gt;&lt;span style=&quot;font-size: 0px; font-weight: 400;&quot;&gt;3CmxGraphModel%3E%3Croot%3E%3CmxCell%20id%3D%220%22%2F%3E%3CmxCell%20id%3D%221%22%20parent%3D%220%22%2F%3E%3CmxCell%20id%3D%222%22%20value%3D%22%26lt%3Bp%20style%3D%26quot%3Bmargin%3A%200px%3B%20margin-top%3A%204px%3B%20text-align%3A%20center%3B%20text-decoration%3A%20underline%3B%26quot%3B%26gt%3B%26lt%3Bspan%20style%3D%26quot%3Btext-wrap%3A%20wrap%3B%20background-color%3A%20initial%3B%26quot%3B%26gt%3B1.1-Ingestao_Classificacao_Materiais_SAP%26lt%3B%2Fspan%26gt%3B%26lt%3Bstrong%26gt%3B%26lt%3Bbr%26gt%3B%26lt%3B%2Fstrong%26gt%3B%26lt%3B%2Fp%26gt%3B%26lt%3Bhr%26gt%3B%26lt%3Bp%20style%3D%26quot%3Bmargin%3A%200px%3B%20margin-left%3A%208px%3B%26quot%3B%26gt%3BPivot%20dos%20dados%20de%20caracteristicas%26lt%3B%2Fp%26gt%3B%22%20style%3D%22verticalAlign%3Dmiddle%3Balign%3Dcenter%3Boverflow%3Dfill%3BfontSize%3D12%3BfontFamily%3DHelvetica%3Bhtml%3D1%3Brounded%3D1%3BfontStyle%3D1%3BstrokeWidth%3D3%3BfillColor%3D%23E6FFCC%22%20vertex%3D%221%22%20parent%3D%221%22%3E%3CmxGeometry%20x%3D%2227%22%20y%3D%22150%22%20width%3D%22253%22%20height%3D%2260%22%20as%3D%22geometry%22%2F%3E%3C%2FmxCell%3E%3C%2Froot%3E%3C%2FmxGraphModel%3E&lt;/span&gt;&lt;/font&gt;&lt;/u&gt;&lt;/span&gt;&lt;strong style=&quot;text-decoration-line: underline;&quot;&gt;&lt;br&gt;&lt;/strong&gt;&lt;/p&gt;&lt;hr&gt;&lt;p style=&quot;margin: 0px; margin-left: 8px;&quot;&gt;Validar os nÃ­veis de hierarquia&lt;/p&gt;" style="verticalAlign=middle;align=center;overflow=fill;fontSize=12;fontFamily=Helvetica;html=1;rounded=1;fontStyle=1;strokeWidth=3;fillColor=#E6FFCC" vertex="1" parent="iVMVPq-4qKG2BlD65Rqs-146">
          <mxGeometry x="19.579999999999984" y="12.579999999999984" width="206.00000000000003" height="60" as="geometry" />
        </mxCell>
        <mxCell id="iVMVPq-4qKG2BlD65Rqs-122" value="&lt;p style=&quot;margin: 4px 0px 0px;&quot;&gt;&lt;span style=&quot;background-color: initial;&quot;&gt;&lt;u style=&quot;&quot;&gt;&lt;span style=&quot;text-wrap: wrap;&quot;&gt;0.5-GeraMatrizCompletude&lt;/span&gt;&lt;font face=&quot;monospace&quot; color=&quot;rgba(0, 0, 0, 0)&quot;&gt;&lt;span style=&quot;font-size: 0px; font-weight: 400;&quot;&gt;3CmxGraphModel%3E%3Croot%3E%3CmxCell%20id%3D%220%22%2F%3E%3CmxCell%20id%3D%221%22%20parent%3D%220%22%2F%3E%3CmxCell%20id%3D%222%22%20value%3D%22%26lt%3Bp%20style%3D%26quot%3Bmargin%3A%200px%3B%20margin-top%3A%204px%3B%20text-align%3A%20center%3B%20text-decoration%3A%20underline%3B%26quot%3B%26gt%3B%26lt%3Bspan%20style%3D%26quot%3Btext-wrap%3A%20wrap%3B%20background-color%3A%20initial%3B%26quot%3B%26gt%3B1.1-Ingestao_Classificacao_Materiais_SAP%26lt%3B%2Fspan%26gt%3B%26lt%3Bstrong%26gt%3B%26lt%3Bbr%26gt%3B%26lt%3B%2Fstrong%26gt%3B%26lt%3B%2Fp%26gt%3B%26lt%3Bhr%26gt%3B%26lt%3Bp%20style%3D%26quot%3Bmargin%3A%200px%3B%20margin-left%3A%208px%3B%26quot%3B%26gt%3BPivot%20dos%20dados%20de%20caracteristicas%26lt%3B%2Fp%26gt%3B%22%20style%3D%22verticalAlign%3Dmiddle%3Balign%3Dcenter%3Boverflow%3Dfill%3BfontSize%3D12%3BfontFamily%3DHelvetica%3Bhtml%3D1%3Brounded%3D1%3BfontStyle%3D1%3BstrokeWidth%3D3%3BfillColor%3D%23E6FFCC%22%20vertex%3D%221%22%20parent%3D%221%22%3E%3CmxGeometry%20x%3D%2227%22%20y%3D%22150%22%20width%3D%22253%22%20height%3D%2260%22%20as%3D%22geometry%22%2F%3E%3C%2FmxCell%3E%3C%2Froot%3E%3C%2FmxGraphModel%3E&lt;/span&gt;&lt;/font&gt;&lt;/u&gt;&lt;/span&gt;&lt;strong style=&quot;text-decoration-line: underline;&quot;&gt;&lt;br&gt;&lt;/strong&gt;&lt;/p&gt;&lt;hr&gt;&lt;p style=&quot;margin: 0px; margin-left: 8px;&quot;&gt;Gerar dados de completude&lt;/p&gt;" style="verticalAlign=middle;align=center;overflow=fill;fontSize=12;fontFamily=Helvetica;html=1;rounded=1;fontStyle=1;strokeWidth=3;fillColor=#E6FFCC" vertex="1" parent="iVMVPq-4qKG2BlD65Rqs-146">
          <mxGeometry x="19.579999999999984" y="173.57999999999998" width="206.00000000000003" height="60" as="geometry" />
        </mxCell>
        <mxCell id="iVMVPq-4qKG2BlD65Rqs-124" value="&lt;p style=&quot;margin: 4px 0px 0px;&quot;&gt;&lt;span style=&quot;background-color: initial;&quot;&gt;&lt;u style=&quot;&quot;&gt;&lt;span style=&quot;text-wrap: wrap;&quot;&gt;0.2-ValidacaoURLMarketPlace&lt;/span&gt;&lt;font face=&quot;monospace&quot; color=&quot;rgba(0, 0, 0, 0)&quot;&gt;&lt;span style=&quot;font-size: 0px; font-weight: 400;&quot;&gt;3CmxGraphModel%3E%3Croot%3E%3CmxCell%20id%3D%220%22%2F%3E%3CmxCell%20id%3D%221%22%20parent%3D%220%22%2F%3E%3CmxCell%20id%3D%222%22%20value%3D%22%26lt%3Bp%20style%3D%26quot%3Bmargin%3A%200px%3B%20margin-top%3A%204px%3B%20text-align%3A%20center%3B%20text-decoration%3A%20underline%3B%26quot%3B%26gt%3B%26lt%3Bspan%20style%3D%26quot%3Btext-wrap%3A%20wrap%3B%20background-color%3A%20initial%3B%26quot%3B%26gt%3B1.1-Ingestao_Classificacao_Materiais_SAP%26lt%3B%2Fspan%26gt%3B%26lt%3Bstrong%26gt%3B%26lt%3Bbr%26gt%3B%26lt%3B%2Fstrong%26gt%3B%26lt%3B%2Fp%26gt%3B%26lt%3Bhr%26gt%3B%26lt%3Bp%20style%3D%26quot%3Bmargin%3A%200px%3B%20margin-left%3A%208px%3B%26quot%3B%26gt%3BPivot%20dos%20dados%20de%20caracteristicas%26lt%3B%2Fp%26gt%3B%22%20style%3D%22verticalAlign%3Dmiddle%3Balign%3Dcenter%3Boverflow%3Dfill%3BfontSize%3D12%3BfontFamily%3DHelvetica%3Bhtml%3D1%3Brounded%3D1%3BfontStyle%3D1%3BstrokeWidth%3D3%3BfillColor%3D%23E6FFCC%22%20vertex%3D%221%22%20parent%3D%221%22%3E%3CmxGeometry%20x%3D%2227%22%20y%3D%22150%22%20width%3D%22253%22%20height%3D%2260%22%20as%3D%22geometry%22%2F%3E%3C%2FmxCell%3E%3C%2Froot%3E%3C%2FmxGraphModel%3E&lt;/span&gt;&lt;/font&gt;&lt;/u&gt;&lt;/span&gt;&lt;strong style=&quot;text-decoration-line: underline;&quot;&gt;&lt;br&gt;&lt;/strong&gt;&lt;/p&gt;&lt;hr&gt;&lt;p style=&quot;margin: 0px; margin-left: 8px;&quot;&gt;Validar url marketplace&amp;nbsp;&lt;span style=&quot;background-color: initial;&quot;&gt;b2c-VTEX&lt;/span&gt;&lt;/p&gt;" style="verticalAlign=middle;align=center;overflow=fill;fontSize=12;fontFamily=Helvetica;html=1;rounded=1;fontStyle=1;strokeWidth=3;fillColor=#E6FFCC" vertex="1" parent="iVMVPq-4qKG2BlD65Rqs-146">
          <mxGeometry x="19.579999999999984" y="92.57999999999998" width="206.00000000000003" height="60" as="geometry" />
        </mxCell>
        <mxCell id="iVMVPq-4qKG2BlD65Rqs-173" value="" style="group" vertex="1" connectable="0" parent="iVMVPq-4qKG2BlD65Rqs-185">
          <mxGeometry x="693" y="468.87" width="919.01" height="392.13" as="geometry" />
        </mxCell>
        <mxCell id="iVMVPq-4qKG2BlD65Rqs-133" value="&lt;p style=&quot;margin: 4px 0px 0px;&quot;&gt;&lt;span style=&quot;background-color: initial;&quot;&gt;&lt;u style=&quot;&quot;&gt;&lt;span style=&quot;text-wrap: wrap;&quot;&gt;4.1-Ingestao_Produto&lt;/span&gt;&lt;font face=&quot;monospace&quot; color=&quot;rgba(0, 0, 0, 0)&quot;&gt;&lt;span style=&quot;font-size: 0px; font-weight: 400;&quot;&gt;3CmxGraphModel%3E%3Croot%3E%3CmxCell%20id%3D%220%22%2F%3E%3CmxCell%20id%3D%221%22%20parent%3D%220%22%2F%3E%3CmxCell%20id%3D%222%22%20value%3D%22%26lt%3Bp%20style%3D%26quot%3Bmargin%3A%200px%3B%20margin-top%3A%204px%3B%20text-align%3A%20center%3B%20text-decoration%3A%20underline%3B%26quot%3B%26gt%3B%26lt%3Bspan%20style%3D%26quot%3Btext-wrap%3A%20wrap%3B%20background-color%3A%20initial%3B%26quot%3B%26gt%3B1.1-Ingestao_Classificacao_Materiais_SAP%26lt%3B%2Fspan%26gt%3B%26lt%3Bstrong%26gt%3B%26lt%3Bbr%26gt%3B%26lt%3B%2Fstrong%26gt%3B%26lt%3B%2Fp%26gt%3B%26lt%3Bhr%26gt%3B%26lt%3Bp%20style%3D%26quot%3Bmargin%3A%200px%3B%20margin-left%3A%208px%3B%26quot%3B%26gt%3BPivot%20dos%20dados%20de%20caracteristicas%26lt%3B%2Fp%26gt%3B%22%20style%3D%22verticalAlign%3Dmiddle%3Balign%3Dcenter%3Boverflow%3Dfill%3BfontSize%3D12%3BfontFamily%3DHelvetica%3Bhtml%3D1%3Brounded%3D1%3BfontStyle%3D1%3BstrokeWidth%3D3%3BfillColor%3D%23E6FFCC%22%20vertex%3D%221%22%20parent%3D%221%22%3E%3CmxGeometry%20x%3D%2227%22%20y%3D%22150%22%20width%3D%22253%22%20height%3D%2260%22%20as%3D%22geometry%22%2F%3E%3C%2FmxCell%3E%3C%2Froot%3E%3C%2FmxGraphModel%3E&lt;/span&gt;&lt;/font&gt;&lt;/u&gt;&lt;/span&gt;&lt;strong style=&quot;text-decoration-line: underline;&quot;&gt;&lt;br&gt;&lt;/strong&gt;&lt;/p&gt;&lt;hr&gt;&lt;p style=&quot;margin: 0px; margin-left: 8px;&quot;&gt;Ingestao dos Produtos Trust&lt;/p&gt;" style="verticalAlign=middle;align=center;overflow=fill;fontSize=12;fontFamily=Helvetica;html=1;rounded=1;fontStyle=1;strokeWidth=3;fillColor=#E6FFCC" vertex="1" parent="iVMVPq-4qKG2BlD65Rqs-173">
          <mxGeometry x="17" y="25" width="206" height="60" as="geometry" />
        </mxCell>
        <mxCell id="iVMVPq-4qKG2BlD65Rqs-152" value="" style="rounded=0;whiteSpace=wrap;html=1;fillColor=none;strokeColor=none;" vertex="1" parent="iVMVPq-4qKG2BlD65Rqs-173">
          <mxGeometry width="240" height="87.42" as="geometry" />
        </mxCell>
        <mxCell id="iVMVPq-4qKG2BlD65Rqs-175" style="edgeStyle=orthogonalEdgeStyle;rounded=0;orthogonalLoop=1;jettySize=auto;html=1;exitX=1;exitY=0.5;exitDx=0;exitDy=0;entryX=0;entryY=0.5;entryDx=0;entryDy=0;jettySize=auto;strokeColor=#990000;strokeWidth=2;" edge="1" parent="iVMVPq-4qKG2BlD65Rqs-185" source="iVMVPq-4qKG2BlD65Rqs-129" target="iVMVPq-4qKG2BlD65Rqs-152">
          <mxGeometry relative="1" as="geometry">
            <mxPoint x="723" y="499.9999999999998" as="targetPoint" />
          </mxGeometry>
        </mxCell>
        <mxCell id="iVMVPq-4qKG2BlD65Rqs-176" style="edgeStyle=orthogonalEdgeStyle;rounded=0;orthogonalLoop=1;jettySize=auto;html=1;jettySize=auto;strokeColor=#990000;strokeWidth=2;" edge="1" parent="iVMVPq-4qKG2BlD65Rqs-185" source="iVMVPq-4qKG2BlD65Rqs-150" target="iVMVPq-4qKG2BlD65Rqs-157">
          <mxGeometry relative="1" as="geometry" />
        </mxCell>
        <mxCell id="iVMVPq-4qKG2BlD65Rqs-178" style="edgeStyle=orthogonalEdgeStyle;rounded=0;orthogonalLoop=1;jettySize=auto;html=1;entryX=0;entryY=0.5;entryDx=0;entryDy=0;entryPerimeter=0;jettySize=auto;strokeColor=#990000;strokeWidth=2;" edge="1" parent="iVMVPq-4qKG2BlD65Rqs-185" source="iVMVPq-4qKG2BlD65Rqs-141" target="iVMVPq-4qKG2BlD65Rqs-177">
          <mxGeometry relative="1" as="geometry">
            <Array as="points">
              <mxPoint x="1073" y="120" />
              <mxPoint x="1073" y="75" />
            </Array>
          </mxGeometry>
        </mxCell>
        <mxCell id="iVMVPq-4qKG2BlD65Rqs-180" style="edgeStyle=orthogonalEdgeStyle;rounded=0;orthogonalLoop=1;jettySize=auto;html=1;jettySize=auto;strokeColor=#990000;strokeWidth=2;" edge="1" parent="iVMVPq-4qKG2BlD65Rqs-185" source="iVMVPq-4qKG2BlD65Rqs-135" target="iVMVPq-4qKG2BlD65Rqs-179">
          <mxGeometry relative="1" as="geometry">
            <Array as="points">
              <mxPoint x="1073" y="120" />
              <mxPoint x="1073" y="240" />
            </Array>
          </mxGeometry>
        </mxCell>
        <mxCell id="iVMVPq-4qKG2BlD65Rqs-183" style="edgeStyle=orthogonalEdgeStyle;rounded=0;orthogonalLoop=1;jettySize=auto;html=1;exitX=0.5;exitY=0;exitDx=0;exitDy=0;entryX=0;entryY=0.5;entryDx=0;entryDy=0;entryPerimeter=0;jettySize=auto;strokeColor=#990000;strokeWidth=2;" edge="1" parent="iVMVPq-4qKG2BlD65Rqs-185" source="iVMVPq-4qKG2BlD65Rqs-152" target="iVMVPq-4qKG2BlD65Rqs-179">
          <mxGeometry relative="1" as="geometry">
            <Array as="points">
              <mxPoint x="813" y="120" />
              <mxPoint x="1073" y="120" />
              <mxPoint x="1073" y="240" />
            </Array>
          </mxGeometry>
        </mxCell>
        <mxCell id="iVMVPq-4qKG2BlD65Rqs-184" value="" style="group" vertex="1" connectable="0" parent="iVMVPq-4qKG2BlD65Rqs-185">
          <mxGeometry x="1263" y="10" width="200" height="300" as="geometry" />
        </mxCell>
        <mxCell id="iVMVPq-4qKG2BlD65Rqs-177" value="&lt;font style=&quot;font-size: 14px;&quot;&gt;&lt;b&gt;&lt;u&gt;Materiais&lt;/u&gt;&lt;/b&gt;&lt;/font&gt;" style="shape=cylinder3;whiteSpace=wrap;html=1;boundedLbl=1;backgroundOutline=1;size=15;fillColor=#fff2cc;strokeColor=#d6b656;gradientColor=#ffd966;" vertex="1" parent="iVMVPq-4qKG2BlD65Rqs-184">
          <mxGeometry width="200" height="130" as="geometry" />
        </mxCell>
        <mxCell id="iVMVPq-4qKG2BlD65Rqs-179" value="&lt;font style=&quot;font-size: 14px;&quot;&gt;&lt;b&gt;&lt;u&gt;Produtos&lt;/u&gt;&lt;/b&gt;&lt;/font&gt;" style="shape=cylinder3;whiteSpace=wrap;html=1;boundedLbl=1;backgroundOutline=1;size=15;fillColor=#fff2cc;gradientColor=#ffd966;strokeColor=#d6b656;" vertex="1" parent="iVMVPq-4qKG2BlD65Rqs-184">
          <mxGeometry y="160" width="190" height="140" as="geometry" />
        </mxCell>
        <mxCell id="iVMVPq-4qKG2BlD65Rqs-161" value="&lt;p style=&quot;margin: 4px 0px 0px;&quot;&gt;&lt;span style=&quot;background-color: initial;&quot;&gt;&lt;u style=&quot;&quot;&gt;&lt;span style=&quot;text-wrap: wrap;&quot;&gt;Sincroniza_log_Qualidade&lt;/span&gt;&lt;font face=&quot;monospace&quot; color=&quot;rgba(0, 0, 0, 0)&quot;&gt;&lt;span style=&quot;font-size: 0px; font-weight: 400;&quot;&gt;3CmxGraphModel%3E%3Croot%3E%3CmxCell%20id%3D%220%22%2F%3E%3CmxCell%20id%3D%221%22%20parent%3D%220%22%2F%3E%3CmxCell%20id%3D%222%22%20value%3D%22%26lt%3Bp%20style%3D%26quot%3Bmargin%3A%200px%3B%20margin-top%3A%204px%3B%20text-align%3A%20center%3B%20text-decoration%3A%20underline%3B%26quot%3B%26gt%3B%26lt%3Bspan%20style%3D%26quot%3Btext-wrap%3A%20wrap%3B%20background-color%3A%20initial%3B%26quot%3B%26gt%3B1.1-Ingestao_Classificacao_Materiais_SAP%26lt%3B%2Fspan%26gt%3B%26lt%3Bstrong%26gt%3B%26lt%3Bbr%26gt%3B%26lt%3B%2Fstrong%26gt%3B%26lt%3B%2Fp%26gt%3B%26lt%3Bhr%26gt%3B%26lt%3Bp%20style%3D%26quot%3Bmargin%3A%200px%3B%20margin-left%3A%208px%3B%26quot%3B%26gt%3BPivot%20dos%20dados%20de%20caracteristicas%26lt%3B%2Fp%26gt%3B%22%20style%3D%22verticalAlign%3Dmiddle%3Balign%3Dcenter%3Boverflow%3Dfill%3BfontSize%3D12%3BfontFamily%3DHelvetica%3Bhtml%3D1%3Brounded%3D1%3BfontStyle%3D1%3BstrokeWidth%3D3%3BfillColor%3D%23E6FFCC%22%20vertex%3D%221%22%20parent%3D%221%22%3E%3CmxGeometry%20x%3D%2227%22%20y%3D%22150%22%20width%3D%22253%22%20height%3D%2260%22%20as%3D%22geometry%22%2F%3E%3C%2FmxCell%3E%3C%2Froot%3E%3C%2FmxGraphModel%3E&lt;/span&gt;&lt;/font&gt;&lt;/u&gt;&lt;/span&gt;&lt;strong style=&quot;text-decoration-line: underline;&quot;&gt;&lt;br&gt;&lt;/strong&gt;&lt;/p&gt;&lt;hr&gt;&lt;p style=&quot;margin: 0px; margin-left: 8px;&quot;&gt;Ingestao dos Dados no Postgree&lt;/p&gt;" style="verticalAlign=middle;align=center;overflow=fill;fontSize=12;fontFamily=Helvetica;html=1;rounded=1;fontStyle=1;strokeWidth=3;fillColor=#E6FFCC" vertex="1" parent="iVMVPq-4qKG2BlD65Rqs-185">
          <mxGeometry x="1270" y="759.9999999999999" width="206" height="60" as="geometry" />
        </mxCell>
        <mxCell id="iVMVPq-4qKG2BlD65Rqs-162" value="&lt;p style=&quot;margin: 4px 0px 0px;&quot;&gt;&lt;span style=&quot;background-color: initial;&quot;&gt;Atualiza_Produto_postgres&lt;/span&gt;&lt;span style=&quot;background-color: initial;&quot;&gt;&lt;u style=&quot;&quot;&gt;&lt;font face=&quot;monospace&quot; color=&quot;rgba(0, 0, 0, 0)&quot;&gt;&lt;span style=&quot;font-size: 0px;&quot;&gt;3CmxGraphModel%3E%3Croot%3E%3CmxCell%20id%3D%220%22%2F%3E%3CmxCell%20id%3D%221%22%20parent%3D%220%22%2F%3E%3CmxCell%20id%3D%222%22%20value%3D%22%26lt%3Bp%20style%3D%26quot%3Bmargin%3A%200px%3B%20margin-top%3A%204px%3B%20text-align%3A%20center%3B%20text-decoration%3A%20underline%3B%26quot%3B%26gt%3B%26lt%3Bspan%20style%3D%26quot%3Btext-wrap%3A%20wrap%3B%20background-color%3A%20initial%3B%26quot%3B%26gt%3B1.1-Ingestao_Classificacao_Materiais_SAP%26lt%3B%2Fspan%26gt%3B%26lt%3Bstrong%26gt%3B%26lt%3Bbr%26gt%3B%26lt%3B%2Fstrong%26gt%3B%26lt%3B%2Fp%26gt%3B%26lt%3Bhr%26gt%3B%26lt%3Bp%20style%3D%26quot%3Bmargin%3A%200px%3B%20margin-left%3A%208px%3B%26quot%3B%26gt%3BPivot%20dos%20dados%20de%20caracteristicas%26lt%3B%2Fp%26gt%3B%22%20style%3D%22verticalAlign%3Dmiddle%3Balign%3Dcenter%3Boverflow%3Dfill%3BfontSize%3D12%3BfontFamily%3DHelvetica%3Bhtml%3D1%3Brounded%3D1%3BfontStyle%3D1%3BstrokeWidth%3D3%3BfillColor%3D%23E6FFCC%22%20vertex%3D%221%22%20parent%3D%221%22%3E%3CmxGeometry%20x%3D%2227%22%20y%3D%22150%22%20width%3D%22253%22%20height%3D%2260%22%20as%3D%22geometry%22%2F%3E%3C%2FmxCell%3E%3C%2Froot%3E%3C%2FmxGraphModel%3E&lt;/span&gt;&lt;/font&gt;&lt;/u&gt;&lt;/span&gt;&lt;strong style=&quot;text-decoration-line: underline;&quot;&gt;&lt;br&gt;&lt;/strong&gt;&lt;/p&gt;&lt;hr&gt;&lt;p style=&quot;margin: 0px; margin-left: 8px;&quot;&gt;Ingestao dos Dados no Postgree&lt;/p&gt;" style="verticalAlign=middle;align=center;overflow=fill;fontSize=12;fontFamily=Helvetica;html=1;rounded=1;fontStyle=1;strokeWidth=3;fillColor=#E6FFCC" vertex="1" parent="iVMVPq-4qKG2BlD65Rqs-185">
          <mxGeometry x="1270" y="660.9999999999999" width="206" height="60" as="geometry" />
        </mxCell>
      </root>
    </mxGraphModel>
  </diagram>
</mxfile>
